<svg id="Layer_1" data-name="Layer 1" xmlns="http://www.w3.org/2000/svg" viewBox="0 0 859.68 278.64"><defs><style>.cls-1{fill:#ec5557;}.cls-2,.cls-3{fill:#fff;}.cls-3{font-size:20px;font-family:Poppins-Regular, Poppins;}</style></defs><path class="cls-1" d="M85.23,154.36a22.8,22.8,0,0,1,8-7.13c10.39-5.88,20.72-11.88,30.92-18.09,5.56-3.39,10.75-3.5,16.37-.25,23.25,13.47,46.57,26.81,69.85,40.22,6.25,3.6,8.25,8.81,5.49,14s-8.86,6.63-15,3.1c-19.88-11.35-39.82-22.61-59.49-34.3-6.15-3.66-11.25-4.17-17.32,0-6.54,4.51-13.66,8.19-20.55,12.19-8.72,5-11.8,4.57-18.23-2.74Z"/><path class="cls-2" d="M587.63,126c0,17.32-.08,34.63.07,51.95,0,3.29-.49,4.73-4.21,4.51a137.46,137.46,0,0,0-17.46,0c-4.06.28-4.53-1.38-4.47-4.83.19-12.32,0-24.65.14-37,0-3.11-.57-4.31-4-4.26q-21.2.33-42.42,0c-3.34,0-4.17,1-4.12,4.2.18,12.49-.06,25,.16,37.46.06,3.56-1,4.52-4.45,4.37-6.14-.28-12.31-.21-18.46,0-2.67.08-3.31-.83-3.3-3.38q.12-52.71,0-105.4c0-2.76,1-3.3,3.44-3.25,6.32.15,12.65.24,19,0,3.24-.14,3.84,1,3.8,4-.16,12.15,0,24.31-.13,36.46,0,2.72.55,3.74,3.51,3.7,14.47-.15,29-.19,43.42,0,3.43,0,3.65-1.36,3.62-4.09-.11-12,.07-24-.13-36,0-3.29.87-4.27,4.15-4.13,6.15.26,12.32.23,18.46,0,2.94-.11,3.55.91,3.53,3.66C587.57,91.34,587.63,108.65,587.63,126Z"/><path class="cls-2" d="M323.78,184.33c-29.59,0-52.61-17.1-59.06-43.8-8.26-34.15,13.33-66.18,48.06-71.13,20.59-2.94,39.28.83,54.64,16,2.05,2,2.64,3.26,0,5.38a125,125,0,0,0-11.34,10.49c-2.18,2.27-3.26,1.79-5.41-.18-18.28-16.76-46.15-13-57.16,7.47-8.3,15.45-4.16,36.3,9.23,46.51,13.91,10.6,34.78,9.29,47.43-3.23,2.35-2.32,3.67-2.91,6.15-.26A114.59,114.59,0,0,0,367,161.39c2.65,2.19,2.71,3.73.19,6.2C355.08,179.46,340.36,184.25,323.78,184.33Z"/><path class="cls-2" d="M746.13,126.4c0-17.3.08-34.6-.07-51.9,0-3.14.63-4.32,4-4.16,6.3.29,12.63.18,18.94,0,2.4-.05,3.08.7,3.07,3.09q-.11,52.91,0,105.8c0,2.92-1.23,3.16-3.54,3.12-6.15-.12-12.31-.24-18.45,0-3.31.15-4.09-.9-4.06-4.12C746.22,161,746.13,143.7,746.13,126.4Z"/><path class="cls-1" d="M154.35,87.42c0,4.65.18,9.32,0,14-.29,5.71,2.35,9.16,7.22,11.9,20.65,11.6,41.19,23.43,61.73,35.24,5,2.86,6.88,7.52,5.24,12.12a9.9,9.9,0,0,1-10.5,6.68,12.42,12.42,0,0,1-5-2.05q-35.59-20.35-71.16-40.77a12.83,12.83,0,0,1-6.93-11.82c-.06-13.3-.19-26.61-.18-39.91,0-6.94,4-11.35,9.86-11.3s9.59,4.31,9.62,11.46c0,4.83,0,9.65,0,14.48Z"/><path class="cls-1" d="M107.19,188.35c-4.57-.3-7.74-2.42-9.26-6.91s-.14-8.29,3.4-10.54c8.94-5.68,18.15-11,27.42-16.08,3.9-2.15,7.93-.53,11.22,1.83,2.91,2.08,8.08,2.29,8,7.13-.06,4.51-4.81,5-7.74,6.78-8.47,5.19-17.1,10.13-25.69,15.11C112.29,187,110.07,188.58,107.19,188.35Z"/><path class="cls-1" d="M178.75,90.43c0,6.16.09,12.32,0,18.48-.1,5.27-2.82,6.86-7.42,4.46-2.5-1.31-5-2.7-7.36-4.18a9.68,9.68,0,0,1-4.92-8.68c0-9.82-.1-19.65,0-29.47a9.27,9.27,0,0,1,9.33-9.6,9.44,9.44,0,0,1,10,9c.32,6.64.08,13.31.08,20Z"/><path class="cls-2" d="M719,97.16c-11.11-18.09-28.71-25.72-49.17-26.54-17.28-.7-34.61-.06-51.91-.29-3.63,0-3.91,1.38-3.89,4.31.1,17.16.05,34.31.05,51.46,0,17.49,0,35,0,52.46,0,1.57-1,3.88,2.26,3.79,21.1-.58,42.33,1.81,63.29-1.26C719.27,175.31,739.9,131.18,719,97.16Zm-48.9,63.41c-8.8.92-17.62.24-26.42.61-3,.12-3.6-1-3.56-3.72.14-10.49.05-21,.05-31.47,0-10.15.11-20.31-.06-30.46,0-3,.69-4.09,3.86-3.94,8.79.41,17.61-.35,26.42.65,18.36,2.07,30,15.57,29.89,34.8C700.18,145.44,688.2,158.66,670.13,160.57Z"/><path class="cls-2" d="M461.63,117.05c-10.51-18-26.92-23.55-46.68-21.6-16.83,1.66-32.15,14.18-36.91,30-5.33,17.77-.06,36.33,13.66,47.38,13.11,10.56,28.4,12.11,44.33,9.94a39.27,39.27,0,0,0,22.88-11.12c1.45-1.45,1.81-2.35.21-3.95-3.41-3.41-6.72-6.93-9.86-10.59-1.51-1.76-2.42-1.39-4-.08-7.09,6-15.54,7.16-24.39,6.19-10.33-1.14-17.73-7.76-19-16.89h4.45c18.62,0,37.24,0,55.86-.06,1.64,0,4.19,1.3,4.42-2.21C467.23,134.64,466.5,125.37,461.63,117.05Zm-22,14.59c-5.78-.22-11.59-.07-17.38-.07s-11.6-.13-17.39.06c-3,.09-3.85-.74-2.93-3.67,2.68-8.55,10.67-14,20.68-13.89,9.34.09,17.26,5.67,19.78,13.78C443.22,130.55,442.86,131.75,439.63,131.64Z"/><text class="cls-3" transform="translate(282.02 218.08)">Global Center for Health Diplomacy and Inclusion</text></svg>